<?xml version="1.0" encoding="UTF-8"?>
<svg width="28px" height="28px" viewBox="0 0 28 28" version="1.1" xmlns="http://www.w3.org/2000/svg" xmlns:xlink="http://www.w3.org/1999/xlink">
    <!-- Generator: Sketch 53.2 (72643) - https://sketchapp.com -->
    <title>Group 21</title>
    <desc>Created with Sketch.</desc>
    <g id="Page-1" stroke="none" stroke-width="1" fill="none" fill-rule="evenodd">
        <g id="Desktop-HD" transform="translate(-1146.000000, -26.000000)">
            <g id="Group-21" transform="translate(1146.000000, 26.000000)">
                <g id="Group-20-Copy" fill="#4F546B">
                    <rect id="Rectangle" x="0" y="0" width="28" height="28" rx="5"></rect>
                </g>
                <g id="1827504" transform="translate(5.000000, 4.000000)">
                    <path d="M8.06929668,19.3664303 C6.40144798,19.3664303 5.04329195,18.0091608 5.04329195,16.3404255 C5.04329195,16.0063534 5.3144208,15.7352246 5.6484929,15.7352246 C5.98256499,15.7352246 6.25369384,16.0063534 6.25369384,16.3404255 C6.25369384,17.3419031 7.06870566,18.1560284 8.06929668,18.1560284 C9.0698877,18.1560284 9.88489952,17.3419031 9.88489952,16.3404255 C9.88489952,16.0063534 10.1560284,15.7352246 10.4901005,15.7352246 C10.8241726,15.7352246 11.0953014,16.0063534 11.0953014,16.3404255 C11.0953014,18.0091608 9.73729316,19.3664303 8.06929668,19.3664303 L8.06929668,19.3664303 Z" id="Path" fill="#FFFFFF" fill-rule="nonzero"></path>
                    <path d="M14.7265071,16.9456265 L1.41208628,16.9456265 C0.633421995,16.9456265 0,16.3122045 0,15.5335402 C0,15.1202719 0.17996452,14.7290189 0.493794345,14.4602541 C0.514036652,14.4425237 0.535756482,14.4264185 0.558362894,14.4117908 C1.7429078,13.3781028 2.42080378,11.8909575 2.42080378,10.3206265 L2.42080378,8.06929668 C2.42080378,4.95463947 4.95537823,2.42080378 8.06929668,2.42080378 C8.19843382,2.42080378 8.33806147,2.42316785 8.46719856,2.44503546 C8.79713358,2.49985226 9.01994682,2.81220448 8.96498228,3.1414007 C8.91016548,3.47059692 8.59219858,3.69341016 8.268617,3.63844562 C8.20404845,3.62795506 8.13312647,3.63120567 8.06929668,3.63120567 C5.6227837,3.63120567 3.63120567,5.62189715 3.63120567,8.06929668 L3.63120567,10.3206265 C3.63120567,12.2702423 2.77659574,14.1149527 1.28871157,15.3809101 C1.27659574,15.3906619 1.26610519,15.3995272 1.25310283,15.4083924 C1.231383,15.4358747 1.21040189,15.4778369 1.21040189,15.5335402 C1.21040189,15.6431737 1.30245273,15.7352246 1.41208628,15.7352246 L14.7265071,15.7352246 C14.8362884,15.7352246 14.9283393,15.6431737 14.9283393,15.5335402 C14.9283393,15.4769504 14.9073581,15.4358747 14.8847518,15.4083924 C14.8726359,15.3995272 14.8621454,15.3906619 14.8500295,15.3809101 C13.3612589,14.1140662 12.5075355,12.2702423 12.5075355,10.3206265 L12.5075355,9.44119383 C12.5075355,9.10712174 12.7786643,8.83599289 13.1127364,8.83599289 C13.4468085,8.83599289 13.7179374,9.10712174 13.7179374,9.44119383 L13.7179374,10.3206265 C13.7179374,11.891844 14.3965721,13.3797281 15.5827423,14.4143026 C15.6044622,14.4287825 15.6254433,14.444149 15.6447991,14.4611407 C15.9587766,14.7290189 16.1387411,15.1202719 16.1387411,15.5335402 C16.1387411,16.3122045 15.5053191,16.9456265 14.7265071,16.9456265 L14.7265071,16.9456265 Z" id="Path" fill="#FFFFFF" fill-rule="nonzero"></path>
                    <circle id="Oval" fill="#FF7B29" cx="14.035" cy="4.035" r="4.035"></circle>
                </g>
            </g>
        </g>
    </g>
</svg>