<?xml version="1.0" encoding="UTF-8"?>
<svg width="20px" height="20px" viewBox="0 0 20 20" version="1.1" xmlns="http://www.w3.org/2000/svg" xmlns:xlink="http://www.w3.org/1999/xlink">
    <!-- Generator: Sketch 53.2 (72643) - https://sketchapp.com -->
    <title>1828765</title>
    <desc>Created with Sketch.</desc>
    <g id="Page-1" stroke="none" stroke-width="1" fill="none" fill-rule="evenodd">
        <g id="Desktop-HD" transform="translate(-136.000000, -175.000000)" fill="#222946" fill-rule="nonzero">
            <g id="Group-7" transform="translate(104.000000, 152.000000)">
                <g id="Group-6" transform="translate(32.000000, 21.000000)">
                    <g id="1828765" transform="translate(0.000000, 2.000000)">
                        <path d="M7.70828246,6.66671754 L1.45828246,6.66671754 C0.654144297,6.66671754 0,6.01257324 0,5.20828246 L0,1.45828246 C0,0.654144297 0.654144297,0 1.45828246,0 L7.70828246,0 C8.51257324,0 9.16671754,0.654144297 9.16671754,1.45828246 L9.16671754,5.20828246 C9.16671754,6.01257324 8.51257324,6.66671754 7.70828246,6.66671754 Z M1.45828246,1.25 C1.34338379,1.25 1.25,1.34338379 1.25,1.45828246 L1.25,5.20828246 C1.25,5.32333375 1.34338379,5.41671754 1.45828246,5.41671754 L7.70828246,5.41671754 C7.82333375,5.41671754 7.91671754,5.32333375 7.91671754,5.20828246 L7.91671754,1.45828246 C7.91671754,1.34338379 7.82333375,1.25 7.70828246,1.25 L1.45828246,1.25 Z" id="Shape"></path>
                        <path d="M7.70828246,20 L1.45828246,20 C0.654144297,20 0,19.3458557 0,18.5417175 L0,9.79171754 C0,8.98742676 0.654144297,8.33328246 1.45828246,8.33328246 L7.70828246,8.33328246 C8.51257324,8.33328246 9.16671754,8.98742676 9.16671754,9.79171754 L9.16671754,18.5417175 C9.16671754,19.3458557 8.51257324,20 7.70828246,20 Z M1.45828246,9.58328246 C1.34338379,9.58328246 1.25,9.67666625 1.25,9.79171754 L1.25,18.5417175 C1.25,18.6566162 1.34338379,18.75 1.45828246,18.75 L7.70828246,18.75 C7.82333375,18.75 7.91671754,18.6566162 7.91671754,18.5417175 L7.91671754,9.79171754 C7.91671754,9.67666625 7.82333375,9.58328246 7.70828246,9.58328246 L1.45828246,9.58328246 Z" id="Shape"></path>
                        <path d="M18.5417175,20 L12.2917175,20 C11.4874268,20 10.8332825,19.3458557 10.8332825,18.5417175 L10.8332825,14.7917175 C10.8332825,13.9874268 11.4874268,13.3332825 12.2917175,13.3332825 L18.5417175,13.3332825 C19.3458557,13.3332825 20,13.9874268 20,14.7917175 L20,18.5417175 C20,19.3458557 19.3458557,20 18.5417175,20 L18.5417175,20 Z M12.2917175,14.5832825 C12.1766663,14.5832825 12.0832825,14.6766663 12.0832825,14.7917175 L12.0832825,18.5417175 C12.0832825,18.6566162 12.1766663,18.75 12.2917175,18.75 L18.5417175,18.75 C18.6566162,18.75 18.75,18.6566162 18.75,18.5417175 L18.75,14.7917175 C18.75,14.6766663 18.6566162,14.5832825 18.5417175,14.5832825 L12.2917175,14.5832825 Z" id="Shape"></path>
                        <path d="M18.5417175,11.6667175 L12.2917175,11.6667175 C11.4874268,11.6667175 10.8332825,11.0125732 10.8332825,10.2082825 L10.8332825,1.45828246 C10.8332825,0.654144297 11.4874268,2.84217094e-14 12.2917175,2.84217094e-14 L18.5417175,2.84217094e-14 C19.3458557,2.84217094e-14 20,0.654144297 20,1.45828246 L20,10.2082825 C20,11.0125732 19.3458557,11.6667175 18.5417175,11.6667175 L18.5417175,11.6667175 Z M12.2917175,1.25 C12.1766663,1.25 12.0832825,1.34338379 12.0832825,1.45828246 L12.0832825,10.2082825 C12.0832825,10.3233338 12.1766663,10.4167175 12.2917175,10.4167175 L18.5417175,10.4167175 C18.6566162,10.4167175 18.75,10.3233338 18.75,10.2082825 L18.75,1.45828246 C18.75,1.34338379 18.6566162,1.25 18.5417175,1.25 L12.2917175,1.25 Z" id="Shape"></path>
                    </g>
                </g>
            </g>
        </g>
    </g>
</svg>