<?xml version="1.0" encoding="UTF-8"?>
<svg width="20px" height="20px" viewBox="0 0 20 20" version="1.1" xmlns="http://www.w3.org/2000/svg" xmlns:xlink="http://www.w3.org/1999/xlink">
    <!-- Generator: Sketch 53.2 (72643) - https://sketchapp.com -->
    <title>2658111</title>
    <desc>Created with Sketch.</desc>
    <g id="Page-1" stroke="none" stroke-width="1" fill="none" fill-rule="evenodd">
        <g id="Desktop-HD" transform="translate(-140.000000, -385.000000)" fill="#222946" fill-rule="nonzero">
            <g id="Group-13" transform="translate(108.000000, 362.000000)">
                <g id="Group-12" transform="translate(32.000000, 21.000000)">
                    <g id="2658111" transform="translate(0.000000, 2.000000)">
                        <path d="M15.3125,20 L4.6875,20 C2.1028125,20 0,17.8971875 0,15.3125 L0,8.7109375 C0,6.12625 2.1028125,4.0234375 4.6875,4.0234375 L7.8125,4.0234375 C8.24398438,4.0234375 8.59375,4.37320312 8.59375,4.8046875 C8.59375,5.23617188 8.24398438,5.5859375 7.8125,5.5859375 L4.6875,5.5859375 C2.964375,5.5859375 1.5625,6.9878125 1.5625,8.7109375 L1.5625,15.3125 C1.5625,17.035625 2.964375,18.4375 4.6875,18.4375 L15.3125,18.4375 C17.035625,18.4375 18.4375,17.035625 18.4375,15.3125 L18.4375,10.8203125 C18.4375,10.3888281 18.7872656,10.0390625 19.21875,10.0390625 C19.6502344,10.0390625 20,10.3888281 20,10.8203125 L20,15.3125 C20,17.8971875 17.8971875,20 15.3125,20 Z M12.8435937,13.5702344 L14.1465234,12.5736719 C14.4892187,12.3115625 14.5545703,11.8212109 14.2924219,11.4785156 C14.0303125,11.1358203 13.5399609,11.0705078 13.1972266,11.3326172 L11.8951562,12.3285547 C10.7793359,13.1796094 9.22066406,13.1796484 8.10394531,12.3278516 L4.37914063,9.49535156 C4.03570313,9.23414063 3.54558594,9.30085937 3.284375,9.64433594 C3.02320313,9.98777344 3.08988281,10.4779297 3.43335938,10.7391016 L7.15726563,13.5709375 C7.99402344,14.2091406 8.99679687,14.5282812 9.99972656,14.5282812 C11.0028906,14.5282422 12.0061719,14.2089453 12.8435937,13.5702344 L12.8435937,13.5702344 Z M20,4.921875 C20,2.20792969 17.7920703,0 15.078125,0 C12.3641797,0 10.15625,2.20792969 10.15625,4.921875 C10.15625,7.63582031 12.3641797,9.84375 15.078125,9.84375 C17.7920703,9.84375 20,7.63582031 20,4.921875 Z M18.4375,4.921875 C18.4375,6.77421875 16.9304687,8.28125 15.078125,8.28125 C13.2257812,8.28125 11.71875,6.77421875 11.71875,4.921875 C11.71875,3.06953125 13.2257812,1.5625 15.078125,1.5625 C16.9304687,1.5625 18.4375,3.06953125 18.4375,4.921875 Z M15.859375,6.1328125 L15.859375,3.7109375 C15.859375,3.27945313 15.5096094,2.9296875 15.078125,2.9296875 L14.296875,2.9296875 C13.8653906,2.9296875 13.515625,3.27945313 13.515625,3.7109375 C13.515625,4.14242188 13.8653906,4.4921875 14.296875,4.4921875 L14.296875,6.1328125 C14.296875,6.56429688 14.6466406,6.9140625 15.078125,6.9140625 C15.5096094,6.9140625 15.859375,6.56429688 15.859375,6.1328125 Z" id="Shape"></path>
                    </g>
                </g>
            </g>
        </g>
    </g>
</svg>