<?xml version="1.0" encoding="UTF-8"?>
<svg width="18px" height="21px" viewBox="0 0 18 21" version="1.1" xmlns="http://www.w3.org/2000/svg" xmlns:xlink="http://www.w3.org/1999/xlink">
    <!-- Generator: Sketch 53.2 (72643) - https://sketchapp.com -->
    <title>154348</title>
    <desc>Created with Sketch.</desc>
    <g id="Page-1" stroke="none" stroke-width="1" fill="none" fill-rule="evenodd">
        <g id="Desktop-HD" transform="translate(-142.000000, -876.000000)" fill="#222946" fill-rule="nonzero">
            <g id="Group-18" transform="translate(108.000000, 854.000000)">
                <g id="Group-17" transform="translate(34.000000, 21.000000)">
                    <g id="154348" transform="translate(9.000000, 11.817204) rotate(90.000000) translate(-9.000000, -11.817204) translate(-1.000000, 2.817204)">
                        <path d="M1.09053763,9.89247312 L12.4729749,9.89247312 C13.06681,9.89247312 13.5482437,9.41103943 13.5482437,8.8172043 C13.5482437,8.22336918 13.06681,7.74193548 12.4729749,7.74193548 L1.09053763,7.74193548 C0.496683065,7.74193548 0.0152688172,8.22334973 0.0152688172,8.8172043 L0.0152688172,8.8172043 C0.0152688172,9.41105887 0.496683065,9.89247312 1.09053763,9.89247312 Z" id="XMLID_4_"></path>
                        <path d="M11.2042294,0.0214336918 C8.26917563,0.0214336918 5.53842294,1.47749104 3.89935484,3.9162724 C3.56817204,4.40910394 3.69921147,5.0772043 4.19204301,5.40845878 C4.68494624,5.73964158 5.35297491,5.60874552 5.68430108,5.11577061 C6.92308244,3.27240143 8.98659498,2.17189964 11.2042294,2.17189964 C14.8683871,2.17197133 17.8494624,5.15297491 17.8494624,8.8172043 C17.8494624,12.4814337 14.8683871,15.4624373 11.2042294,15.4624373 C8.99311828,15.4624373 6.93297491,14.3668817 5.69326165,12.5318996 C5.36071685,12.0397849 4.69247312,11.9104659 4.20028674,12.2428674 C3.70824373,12.5753405 3.57878136,13.2437276 3.91125448,13.7357706 C5.55146953,16.1635842 8.27777778,17.6129749 11.2042294,17.6129749 C16.0541935,17.6129749 20,13.6672401 20,8.8172043 C20,3.96716846 16.0541935,0.0214336918 11.2042294,0.0214336918 Z" id="XMLID_5_"></path>
                    </g>
                </g>
            </g>
        </g>
    </g>
</svg>