<?xml version="1.0" encoding="UTF-8"?>
<svg width="28px" height="28px" viewBox="0 0 28 28" version="1.1" xmlns="http://www.w3.org/2000/svg" xmlns:xlink="http://www.w3.org/1999/xlink">
    <!-- Generator: Sketch 53.2 (72643) - https://sketchapp.com -->
    <title>Group 20</title>
    <desc>Created with Sketch.</desc>
    <g id="Page-1" stroke="none" stroke-width="1" fill="none" fill-rule="evenodd">
        <g id="Desktop-HD" transform="translate(-1339.000000, -26.000000)">
            <g id="Group-20" transform="translate(1339.000000, 26.000000)">
                <rect id="Rectangle" fill="#4F546B" x="0" y="0" width="28" height="28" rx="5"></rect>
                <g id="1077114" transform="translate(6.000000, 4.000000)" fill="#FFFFFF" fill-rule="nonzero">
                    <path d="M8.1912602,9.60408146 C9.51068438,9.60408146 10.6532017,9.13085938 11.5867163,8.1971926 C12.520231,7.26367796 12.9934531,6.12146491 12.9934531,4.80188863 C12.9934531,3.48276869 12.520231,2.3404035 11.5865642,1.40658466 C10.6528974,0.473222118 9.51053228,0 8.1912602,0 C6.87168396,0 5.72947087,0.473222118 4.79595623,1.40673676 C3.86244159,2.3402514 3.38906737,3.48261659 3.38906737,4.80188863 C3.38906737,6.12146491 3.86244159,7.26383006 4.79610833,8.1973447 C5.72977512,9.13070724 6.87214026,9.60408146 8.1912602,9.60408146 Z" id="Path"></path>
                    <path d="M16.5938048,15.3311186 C16.5668808,14.9426231 16.5124245,14.5188376 16.4322613,14.0713225 C16.3513374,13.620461 16.2471403,13.1942416 16.122408,12.8046814 C15.9935687,12.4020395 15.818335,12.0044174 15.6017268,11.6233754 C15.3769044,11.2278828 15.1128371,10.8835 14.8165218,10.6001144 C14.5066686,10.303647 14.1272999,10.0652867 13.6886074,9.89142208 C13.2514359,9.71847009 12.7669575,9.63085327 12.2487101,9.63085327 C12.0451835,9.63085327 11.8483499,9.71436308 11.4682206,9.96185016 C11.2342716,10.114419 10.9606211,10.2908696 10.6551791,10.48603 C10.3940019,10.6524411 10.0401881,10.8083565 9.60316881,10.9495169 C9.17679735,11.0874829 8.74388509,11.1574548 8.31660093,11.1574548 C7.88931682,11.1574548 7.45655666,11.0874829 7.02972889,10.9495169 C6.59316589,10.8085086 6.2393521,10.6525932 5.97847913,10.4861821 C5.67592726,10.292847 5.40212469,10.1163965 5.16467702,9.96169805 C4.78500413,9.71421098 4.58801838,9.63070117 4.38449182,9.63070117 C3.86609229,9.63070117 3.38176597,9.71847009 2.94474665,9.89157418 C2.50635829,10.0651346 2.12683754,10.3034949 1.81668006,10.6002665 C1.52051694,10.8838043 1.25629747,11.228035 1.03177936,11.6233754 C0.815323209,12.0044174 0.640089564,12.4018874 0.511098131,12.8048335 C0.386517952,13.1943937 0.282320872,13.620461 0.201397002,14.0713225 C0.121233684,14.5182292 0.0667774143,14.9421668 0.0398535047,15.3315749 C0.0133859034,15.7130732 0,16.1090221 0,16.508926 C0,17.5496799 0.330844782,18.3922313 0.983255452,19.013611 C1.62760417,19.6267767 2.48019494,19.9378468 3.516994,19.9378468 L13.1171206,19.9378468 C14.1539196,19.9378468 15.0062062,19.6269288 15.650707,19.013611 C16.3032698,18.3926877 16.6341146,17.5499842 16.6341146,16.5087738 C16.6339625,16.1070446 16.6204245,15.7107915 16.5938048,15.3311186 L16.5938048,15.3311186 Z" id="Path"></path>
                </g>
            </g>
        </g>
    </g>
</svg>