<?xml version="1.0" encoding="UTF-8"?>
<svg width="20px" height="16px" viewBox="0 0 20 16" version="1.1" xmlns="http://www.w3.org/2000/svg" xmlns:xlink="http://www.w3.org/1999/xlink">
    <!-- Generator: Sketch 53.2 (72643) - https://sketchapp.com -->
    <title>Group 10</title>
    <desc>Created with Sketch.</desc>
    <g id="Page-1" stroke="none" stroke-width="1" fill="none" fill-rule="evenodd">
        <g id="Desktop-HD" transform="translate(-140.000000, -321.000000)">
            <g id="Group-16" transform="translate(108.000000, 296.000000)">
                <g id="Group-11" transform="translate(32.000000, 21.000000)">
                    <g id="Group-10" transform="translate(0.000000, 4.000000)">
                        <rect id="Rectangle" stroke="#222946" stroke-width="2" x="1" y="1" width="18" height="14" rx="2"></rect>
                        <g id="624708" transform="translate(5.000000, 4.000000)" fill="#222946" fill-rule="nonzero">
                            <path d="M2.29583984,3.66667187 L0.2125,3.66667187 C0.0975,3.66667187 0.00416015625,3.74134375 0.00416015625,3.83334375 L0.00416015625,7.83334375 C0.00416015625,7.92532812 0.0975,8 0.2125,8 L2.29583984,8 C2.41083984,8 2.50417969,7.92532812 2.50417969,7.83332812 L2.50417969,3.83332812 C2.50416016,3.74132812 2.41125,3.66667187 2.29583984,3.66667187 Z" id="Path"></path>
                            <path d="M6.0375,0 L3.95416016,0 C3.83916016,0 3.74582031,0.074671875 3.74582031,0.166671875 L3.74582031,7.83334375 C3.74582031,7.92534375 3.83916016,8.00001562 3.95416016,8.00001562 L6.0375,8.00001562 C6.1525,8.00001562 6.24583984,7.92534375 6.24583984,7.83334375 L6.24583984,0.166671875 C6.24583984,0.074671875 6.1525,0 6.0375,0 Z" id="Path"></path>
                            <path d="M9.7875,1.66667187 L7.70416016,1.66667187 C7.58916016,1.66667187 7.49582031,1.74134375 7.49582031,1.83334375 L7.49582031,7.83334375 C7.49582031,7.92534375 7.58916016,8.00001562 7.70416016,8.00001562 L9.7875,8.00001562 C9.9025,8.00001562 9.99583984,7.92534375 9.99583984,7.83334375 L9.99583984,1.83334375 C9.99583984,1.74132812 9.9025,1.66667187 9.7875,1.66667187 Z" id="Path"></path>
                        </g>
                    </g>
                </g>
            </g>
        </g>
    </g>
</svg>