<?xml version="1.0" encoding="UTF-8"?>
<svg width="20px" height="21px" viewBox="0 0 20 21" version="1.1" xmlns="http://www.w3.org/2000/svg" xmlns:xlink="http://www.w3.org/1999/xlink">
    <!-- Generator: Sketch 53.2 (72643) - https://sketchapp.com -->
    <title>1738780</title>
    <desc>Created with Sketch.</desc>
    <g id="Page-1" stroke="none" stroke-width="1" fill="none" fill-rule="evenodd">
        <g id="Desktop-HD" transform="translate(-141.000000, -451.000000)" fill="#222946" fill-rule="nonzero">
            <g id="Group-15" transform="translate(108.000000, 428.000000)">
                <g id="Group-14" transform="translate(33.000000, 21.000000)">
                    <g id="1738780" transform="translate(0.000000, 2.000000)">
                        <path d="M19.6710769,12.2330857 L18.5724153,11.598723 C17.3873404,10.9144769 17.386266,9.20386173 18.5724153,8.51915521 L19.6710769,7.8847925 C19.9528794,7.72194255 20.0494229,7.3615545 19.8867264,7.07975198 L17.5196464,2.97934063 C17.3571034,2.69769155 16.9964084,2.6008411 16.7144523,2.76353756 L15.6157908,3.39790028 C14.4308694,4.08199289 12.9492571,3.22798994 12.9492571,1.85811639 L12.9492571,0.589390963 C12.9492571,0.263844558 12.6854126,0 12.3598662,0 L7.62555253,0 C7.30015961,0 7.03616157,0.263844558 7.03616157,0.589390963 L7.03616157,1.85811639 C7.03616157,3.22660857 5.55593077,4.08276031 4.36962794,3.39790028 L3.27096637,2.76353756 C2.98931729,2.6008411 2.62862232,2.6973846 2.46577234,2.97934063 L0.0986922986,7.07975198 C-0.064004165,7.3615545 0.0325392927,7.72209603 0.314341847,7.8847925 L1.41300346,8.51915521 C2.59807835,9.20340126 2.59915277,10.9140165 1.41300346,11.598723 L0.314495324,12.2330857 C0.0325392927,12.3959356 -0.064004165,12.7563237 0.0986922986,13.0381262 L2.46577234,17.1385376 C2.62831532,17.4201866 2.98901029,17.5171906 3.27096637,17.3543406 L4.36962794,16.7199779 C5.55439587,16.0357318 7.03616157,16.8897348 7.03616157,18.2597618 L7.03616157,19.5284872 C7.03616157,19.8540336 7.30000613,20.1178782 7.62555253,20.1178782 L12.3597127,20.1178782 C12.6852591,20.1178782 12.9491037,19.8540336 12.9491037,19.5284872 L12.9491037,18.2597618 C12.9491037,16.8915766 14.4293345,16.0349644 15.6157908,16.7199779 L16.7144523,17.3543406 C16.9961014,17.5170371 17.3567964,17.4204936 17.5194929,17.1385376 L19.8867264,13.0381262 C20.0494229,12.7563237 19.9528794,12.3959356 19.6710769,12.2330857 Z M16.7933448,16.0388016 L16.2051817,15.6991343 C14.2342522,14.5610265 11.7704752,15.9818578 11.7704752,18.2597618 L11.7704752,18.9390963 L8.2149435,18.9390963 L8.2149435,18.2597618 C8.2149435,15.9838531 5.75270138,14.5601056 3.78023697,15.6991343 L3.19207391,16.0388016 L1.41423136,12.9592338 L2.00239442,12.6195666 C3.97317045,11.4817657 3.97516578,8.63734035 2.0025479,7.49831163 L1.41423136,7.1586444 L3.19207391,4.07907662 L3.78023697,4.41874385 C5.75116652,5.55685167 8.2149435,4.13602039 8.2149435,1.85811639 L8.2149435,1.17878193 L11.7704752,1.17878193 L11.7704752,1.85811639 C11.7704752,4.13402507 14.2325639,5.55777257 16.2051817,4.41874385 L16.7933448,4.07907662 L18.5711874,7.1586444 L17.9830243,7.49831163 C16.0122483,8.63611246 16.010253,11.4805378 17.9828708,12.6195666 L18.5711874,12.9592338 L16.7933448,16.0388016 Z" id="Shape"></path>
                        <path d="M9.99278609,5.93320236 C7.71795187,5.93320236 5.86735635,7.78395136 5.86735635,10.0589391 C5.86735635,12.3339268 7.71795187,14.1846758 9.99278609,14.1846758 C12.2674668,14.1846758 14.1180624,12.3339268 14.1180624,10.0589391 C14.1180624,7.78395136 12.2674668,5.93320236 9.99278609,5.93320236 Z M9.99278609,13.0058939 C8.36797029,13.0058939 7.04613827,11.6839084 7.04613827,10.0589391 C7.04613827,8.43396978 8.36797029,7.11198428 9.99278609,7.11198428 C11.6174484,7.11198428 12.9392805,8.43396978 12.9392805,10.0589391 C12.9392805,11.6839084 11.6174484,13.0058939 9.99278609,13.0058939 Z" id="Shape"></path>
                    </g>
                </g>
            </g>
        </g>
    </g>
</svg>